# xmcd
#
# Track frame offsets: 
#        150
#        1260
#        14560
#        32410
#        41305
#        61250
#        75385
#        104145
#        125550
#        146805
#        160825
#        171585
#        191730
#        200240
#        223400
#        253205
#        276105
#        290680
#        306275
#
# Disc length: 4234 seconds
#
# Revision: 0
# Processed by: cddbd v1.4PL0 Copyright (c) Steve Scherf et al.
# Submitted via: ExactAudioCopy v0.90b2
#
DISCID=28108813
DTITLE=Wayne Hancock - 2002-02-15 Free St. Tavernia Portland, ME (disc
DTITLE=1)
DYEAR=2002
DGENRE=Country
TTITLE0=intro
TTITLE1=kansas city blues
TTITLE2=lousiana blues
TTITLE3=no lovin' tonight
TTITLE4=viper
TTITLE5=highway 54
TTITLE6=draggin' me down
TTITLE7=johnny law
TTITLE8=87 southbound
TTITLE9=flatland boogie
TTITLE10=smell that bread
TTITLE11=cow cow boogie
TTITLE12=a town blues
TTITLE13=thunderstorms
TTITLE14=milkcow blues
TTITLE15=walkin' the dog
TTITLE16=honky tonk angels
TTITLE17=thunder rolling
TTITLE18=miller jack and maddog
EXTD=
EXTT0=
EXTT1=
EXTT2=
EXTT3=
EXTT4=
EXTT5=
EXTT6=
EXTT7=
EXTT8=
EXTT9=
EXTT10=
EXTT11=
EXTT12=
EXTT13=
EXTT14=
EXTT15=
EXTT16=
EXTT17=
EXTT18=
PLAYORDER=
